<svg xmlns="http://www.w3.org/2000/svg" version="1.1" xmlns:xlink="http://www.w3.org/1999/xlink" xmlns:svgjs="http://svgjs.com/svgjs" width="1440" height="560" preserveAspectRatio="none" viewBox="0 0 1440 560"><g mask="url(&quot;#SvgjsMask1079&quot;)" fill="none"><rect width="1440" height="560" x="0" y="0" fill="#0e2a47"></rect><path d="M57.19 -70.55L121.28 -33.55L121.28 40.45L57.19 77.45L-6.9 40.45L-6.9 -33.55zM121.28 40.45L185.37 77.45L185.37 151.45L121.28 188.45L57.19 151.45L57.19 77.45zM57.19 373.45L121.28 410.45L121.28 484.45L57.19 521.45L-6.9 484.45L-6.9 410.45zM249.45 40.45L313.54 77.45L313.54 151.45L249.45 188.45L185.37 151.45L185.37 77.45zM249.45 262.45L313.54 299.45L313.54 373.45L249.45 410.45L185.37 373.45L185.37 299.45zM185.37 373.45L249.45 410.45L249.45 484.45L185.37 521.45L121.28 484.45L121.28 410.45zM377.63 40.45L441.72 77.45L441.72 151.45L377.63 188.45L313.54 151.45L313.54 77.45zM441.72 151.45L505.8 188.45L505.8 262.45L441.72 299.45L377.63 262.45L377.63 188.45zM505.8 262.45L569.89 299.45L569.89 373.45L505.8 410.45L441.72 373.45L441.72 299.45zM569.89 151.45L633.98 188.45L633.98 262.45L569.89 299.45L505.8 262.45L505.8 188.45zM698.07 373.45L762.15 410.45L762.15 484.45L698.07 521.45L633.98 484.45L633.98 410.45zM826.24 -70.55L890.33 -33.55L890.33 40.45L826.24 77.45L762.15 40.45L762.15 -33.55zM890.33 262.45L954.42 299.45L954.42 373.45L890.33 410.45L826.24 373.45L826.24 299.45zM954.42 -70.55L1018.51 -33.55L1018.51 40.45L954.42 77.45L890.33 40.45L890.33 -33.55zM1018.51 40.45L1082.59 77.45L1082.59 151.45L1018.51 188.45L954.42 151.45L954.42 77.45zM1018.51 262.45L1082.59 299.45L1082.59 373.45L1018.51 410.45L954.42 373.45L954.42 299.45zM954.42 373.45L1018.51 410.45L1018.51 484.45L954.42 521.45L890.33 484.45L890.33 410.45zM1210.77 -70.55L1274.86 -33.55L1274.86 40.45L1210.77 77.45L1146.68 40.45L1146.68 -33.55zM1274.86 40.45L1338.94 77.45L1338.94 151.45L1274.86 188.45L1210.77 151.45L1210.77 77.45zM1274.86 262.45L1338.94 299.45L1338.94 373.45L1274.86 410.45L1210.77 373.45L1210.77 299.45zM1210.77 373.45L1274.86 410.45L1274.86 484.45L1210.77 521.45L1146.68 484.45L1146.68 410.45zM1274.86 484.45L1338.94 521.45L1338.94 595.45L1274.86 632.45L1210.77 595.45L1210.77 521.45zM1403.03 40.45L1467.12 77.45L1467.12 151.45L1403.03 188.45L1338.94 151.45L1338.94 77.45zM1338.94 151.45L1403.03 188.45L1403.03 262.45L1338.94 299.45L1274.86 262.45L1274.86 188.45zM1403.03 262.45L1467.12 299.45L1467.12 373.45L1403.03 410.45L1338.94 373.45L1338.94 299.45zM1338.94 373.45L1403.03 410.45L1403.03 484.45L1338.94 521.45L1274.86 484.45L1274.86 410.45zM1467.12 151.45L1531.21 188.45L1531.21 262.45L1467.12 299.45L1403.03 262.45L1403.03 188.45zM1531.21 484.45L1595.29 521.45L1595.29 595.45L1531.21 632.45L1467.12 595.45L1467.12 521.45z" stroke="#03305d" stroke-width="2"></path><path d="M49.79 -70.55 a7.4 7.4 0 1 0 14.8 0 a7.4 7.4 0 1 0 -14.8 0zM113.88 -33.55 a7.4 7.4 0 1 0 14.8 0 a7.4 7.4 0 1 0 -14.8 0zM113.88 40.45 a7.4 7.4 0 1 0 14.8 0 a7.4 7.4 0 1 0 -14.8 0zM49.79 77.45 a7.4 7.4 0 1 0 14.8 0 a7.4 7.4 0 1 0 -14.8 0zM-14.3 40.45 a7.4 7.4 0 1 0 14.8 0 a7.4 7.4 0 1 0 -14.8 0zM-14.3 -33.55 a7.4 7.4 0 1 0 14.8 0 a7.4 7.4 0 1 0 -14.8 0zM177.97 77.45 a7.4 7.4 0 1 0 14.8 0 a7.4 7.4 0 1 0 -14.8 0zM177.97 151.45 a7.4 7.4 0 1 0 14.8 0 a7.4 7.4 0 1 0 -14.8 0zM113.88 188.45 a7.4 7.4 0 1 0 14.8 0 a7.4 7.4 0 1 0 -14.8 0zM49.79 151.45 a7.4 7.4 0 1 0 14.8 0 a7.4 7.4 0 1 0 -14.8 0zM49.79 373.45 a7.4 7.4 0 1 0 14.8 0 a7.4 7.4 0 1 0 -14.8 0zM113.88 410.45 a7.4 7.4 0 1 0 14.8 0 a7.4 7.4 0 1 0 -14.8 0zM113.88 484.45 a7.4 7.4 0 1 0 14.8 0 a7.4 7.4 0 1 0 -14.8 0zM49.79 521.45 a7.4 7.4 0 1 0 14.8 0 a7.4 7.4 0 1 0 -14.8 0zM-14.3 484.45 a7.4 7.4 0 1 0 14.8 0 a7.4 7.4 0 1 0 -14.8 0zM-14.3 410.45 a7.4 7.4 0 1 0 14.8 0 a7.4 7.4 0 1 0 -14.8 0zM242.05 40.45 a7.4 7.4 0 1 0 14.8 0 a7.4 7.4 0 1 0 -14.8 0zM306.14 77.45 a7.4 7.4 0 1 0 14.8 0 a7.4 7.4 0 1 0 -14.8 0zM306.14 151.45 a7.4 7.4 0 1 0 14.8 0 a7.4 7.4 0 1 0 -14.8 0zM242.05 188.45 a7.4 7.4 0 1 0 14.8 0 a7.4 7.4 0 1 0 -14.8 0zM242.05 262.45 a7.4 7.4 0 1 0 14.8 0 a7.4 7.4 0 1 0 -14.8 0zM306.14 299.45 a7.4 7.4 0 1 0 14.8 0 a7.4 7.4 0 1 0 -14.8 0zM306.14 373.45 a7.4 7.4 0 1 0 14.8 0 a7.4 7.4 0 1 0 -14.8 0zM242.05 410.45 a7.4 7.4 0 1 0 14.8 0 a7.4 7.4 0 1 0 -14.8 0zM177.97 373.45 a7.4 7.4 0 1 0 14.8 0 a7.4 7.4 0 1 0 -14.8 0zM177.97 299.45 a7.4 7.4 0 1 0 14.8 0 a7.4 7.4 0 1 0 -14.8 0zM242.05 484.45 a7.4 7.4 0 1 0 14.8 0 a7.4 7.4 0 1 0 -14.8 0zM177.97 521.45 a7.4 7.4 0 1 0 14.8 0 a7.4 7.4 0 1 0 -14.8 0zM370.23 40.45 a7.4 7.4 0 1 0 14.8 0 a7.4 7.4 0 1 0 -14.8 0zM434.32 77.45 a7.4 7.4 0 1 0 14.8 0 a7.4 7.4 0 1 0 -14.8 0zM434.32 151.45 a7.4 7.4 0 1 0 14.8 0 a7.4 7.4 0 1 0 -14.8 0zM370.23 188.45 a7.4 7.4 0 1 0 14.8 0 a7.4 7.4 0 1 0 -14.8 0zM498.4 188.45 a7.4 7.4 0 1 0 14.8 0 a7.4 7.4 0 1 0 -14.8 0zM498.4 262.45 a7.4 7.4 0 1 0 14.8 0 a7.4 7.4 0 1 0 -14.8 0zM434.32 299.45 a7.4 7.4 0 1 0 14.8 0 a7.4 7.4 0 1 0 -14.8 0zM370.23 262.45 a7.4 7.4 0 1 0 14.8 0 a7.4 7.4 0 1 0 -14.8 0zM562.49 299.45 a7.4 7.4 0 1 0 14.8 0 a7.4 7.4 0 1 0 -14.8 0zM562.49 373.45 a7.4 7.4 0 1 0 14.8 0 a7.4 7.4 0 1 0 -14.8 0zM498.4 410.45 a7.4 7.4 0 1 0 14.8 0 a7.4 7.4 0 1 0 -14.8 0zM434.32 373.45 a7.4 7.4 0 1 0 14.8 0 a7.4 7.4 0 1 0 -14.8 0zM562.49 151.45 a7.4 7.4 0 1 0 14.8 0 a7.4 7.4 0 1 0 -14.8 0zM626.58 188.45 a7.4 7.4 0 1 0 14.8 0 a7.4 7.4 0 1 0 -14.8 0zM626.58 262.45 a7.4 7.4 0 1 0 14.8 0 a7.4 7.4 0 1 0 -14.8 0zM690.67 373.45 a7.4 7.4 0 1 0 14.8 0 a7.4 7.4 0 1 0 -14.8 0zM754.75 410.45 a7.4 7.4 0 1 0 14.8 0 a7.4 7.4 0 1 0 -14.8 0zM754.75 484.45 a7.4 7.4 0 1 0 14.8 0 a7.4 7.4 0 1 0 -14.8 0zM690.67 521.45 a7.4 7.4 0 1 0 14.8 0 a7.4 7.4 0 1 0 -14.8 0zM626.58 484.45 a7.4 7.4 0 1 0 14.8 0 a7.4 7.4 0 1 0 -14.8 0zM626.58 410.45 a7.4 7.4 0 1 0 14.8 0 a7.4 7.4 0 1 0 -14.8 0zM818.84 -70.55 a7.4 7.4 0 1 0 14.8 0 a7.4 7.4 0 1 0 -14.8 0zM882.93 -33.55 a7.4 7.4 0 1 0 14.8 0 a7.4 7.4 0 1 0 -14.8 0zM882.93 40.45 a7.4 7.4 0 1 0 14.8 0 a7.4 7.4 0 1 0 -14.8 0zM818.84 77.45 a7.4 7.4 0 1 0 14.8 0 a7.4 7.4 0 1 0 -14.8 0zM754.75 40.45 a7.4 7.4 0 1 0 14.8 0 a7.4 7.4 0 1 0 -14.8 0zM754.75 -33.55 a7.4 7.4 0 1 0 14.8 0 a7.4 7.4 0 1 0 -14.8 0zM882.93 262.45 a7.4 7.4 0 1 0 14.8 0 a7.4 7.4 0 1 0 -14.8 0zM947.02 299.45 a7.4 7.4 0 1 0 14.8 0 a7.4 7.4 0 1 0 -14.8 0zM947.02 373.45 a7.4 7.4 0 1 0 14.8 0 a7.4 7.4 0 1 0 -14.8 0zM882.93 410.45 a7.4 7.4 0 1 0 14.8 0 a7.4 7.4 0 1 0 -14.8 0zM818.84 373.45 a7.4 7.4 0 1 0 14.8 0 a7.4 7.4 0 1 0 -14.8 0zM818.84 299.45 a7.4 7.4 0 1 0 14.8 0 a7.4 7.4 0 1 0 -14.8 0zM947.02 -70.55 a7.4 7.4 0 1 0 14.8 0 a7.4 7.4 0 1 0 -14.8 0zM1011.11 -33.55 a7.4 7.4 0 1 0 14.8 0 a7.4 7.4 0 1 0 -14.8 0zM1011.11 40.45 a7.4 7.4 0 1 0 14.8 0 a7.4 7.4 0 1 0 -14.8 0zM947.02 77.45 a7.4 7.4 0 1 0 14.8 0 a7.4 7.4 0 1 0 -14.8 0zM1075.19 77.45 a7.4 7.4 0 1 0 14.8 0 a7.4 7.4 0 1 0 -14.8 0zM1075.19 151.45 a7.4 7.4 0 1 0 14.8 0 a7.4 7.4 0 1 0 -14.8 0zM1011.11 188.45 a7.4 7.4 0 1 0 14.8 0 a7.4 7.4 0 1 0 -14.8 0zM947.02 151.45 a7.4 7.4 0 1 0 14.8 0 a7.4 7.4 0 1 0 -14.8 0zM1011.11 262.45 a7.4 7.4 0 1 0 14.8 0 a7.4 7.4 0 1 0 -14.8 0zM1075.19 299.45 a7.4 7.4 0 1 0 14.8 0 a7.4 7.4 0 1 0 -14.8 0zM1075.19 373.45 a7.4 7.4 0 1 0 14.8 0 a7.4 7.4 0 1 0 -14.8 0zM1011.11 410.45 a7.4 7.4 0 1 0 14.8 0 a7.4 7.4 0 1 0 -14.8 0zM1011.11 484.45 a7.4 7.4 0 1 0 14.8 0 a7.4 7.4 0 1 0 -14.8 0zM947.02 521.45 a7.4 7.4 0 1 0 14.8 0 a7.4 7.4 0 1 0 -14.8 0zM882.93 484.45 a7.4 7.4 0 1 0 14.8 0 a7.4 7.4 0 1 0 -14.8 0zM1203.37 -70.55 a7.4 7.4 0 1 0 14.8 0 a7.4 7.4 0 1 0 -14.8 0zM1267.46 -33.55 a7.4 7.4 0 1 0 14.8 0 a7.4 7.4 0 1 0 -14.8 0zM1267.46 40.45 a7.4 7.4 0 1 0 14.8 0 a7.4 7.4 0 1 0 -14.8 0zM1203.37 77.45 a7.4 7.4 0 1 0 14.8 0 a7.4 7.4 0 1 0 -14.8 0zM1139.28 40.45 a7.4 7.4 0 1 0 14.8 0 a7.4 7.4 0 1 0 -14.8 0zM1139.28 -33.55 a7.4 7.4 0 1 0 14.8 0 a7.4 7.4 0 1 0 -14.8 0zM1331.54 77.45 a7.4 7.4 0 1 0 14.8 0 a7.4 7.4 0 1 0 -14.8 0zM1331.54 151.45 a7.4 7.4 0 1 0 14.8 0 a7.4 7.4 0 1 0 -14.8 0zM1267.46 188.45 a7.4 7.4 0 1 0 14.8 0 a7.4 7.4 0 1 0 -14.8 0zM1203.37 151.45 a7.4 7.4 0 1 0 14.8 0 a7.4 7.4 0 1 0 -14.8 0zM1267.46 262.45 a7.4 7.4 0 1 0 14.8 0 a7.4 7.4 0 1 0 -14.8 0zM1331.54 299.45 a7.4 7.4 0 1 0 14.8 0 a7.4 7.4 0 1 0 -14.8 0zM1331.54 373.45 a7.4 7.4 0 1 0 14.8 0 a7.4 7.4 0 1 0 -14.8 0zM1267.46 410.45 a7.4 7.4 0 1 0 14.8 0 a7.4 7.4 0 1 0 -14.8 0zM1203.37 373.45 a7.4 7.4 0 1 0 14.8 0 a7.4 7.4 0 1 0 -14.8 0zM1203.37 299.45 a7.4 7.4 0 1 0 14.8 0 a7.4 7.4 0 1 0 -14.8 0zM1267.46 484.45 a7.4 7.4 0 1 0 14.8 0 a7.4 7.4 0 1 0 -14.8 0zM1203.37 521.45 a7.4 7.4 0 1 0 14.8 0 a7.4 7.4 0 1 0 -14.8 0zM1139.28 484.45 a7.4 7.4 0 1 0 14.8 0 a7.4 7.4 0 1 0 -14.8 0zM1139.28 410.45 a7.4 7.4 0 1 0 14.8 0 a7.4 7.4 0 1 0 -14.8 0zM1331.54 521.45 a7.4 7.4 0 1 0 14.8 0 a7.4 7.4 0 1 0 -14.8 0zM1331.54 595.45 a7.4 7.4 0 1 0 14.8 0 a7.4 7.4 0 1 0 -14.8 0zM1267.46 632.45 a7.4 7.4 0 1 0 14.8 0 a7.4 7.4 0 1 0 -14.8 0zM1203.37 595.45 a7.4 7.4 0 1 0 14.8 0 a7.4 7.4 0 1 0 -14.8 0zM1395.63 40.45 a7.4 7.4 0 1 0 14.8 0 a7.4 7.4 0 1 0 -14.8 0zM1459.72 77.45 a7.4 7.4 0 1 0 14.8 0 a7.4 7.4 0 1 0 -14.8 0zM1459.72 151.45 a7.4 7.4 0 1 0 14.8 0 a7.4 7.4 0 1 0 -14.8 0zM1395.63 188.45 a7.4 7.4 0 1 0 14.8 0 a7.4 7.4 0 1 0 -14.8 0zM1395.63 262.45 a7.4 7.4 0 1 0 14.8 0 a7.4 7.4 0 1 0 -14.8 0zM1459.72 299.45 a7.4 7.4 0 1 0 14.8 0 a7.4 7.4 0 1 0 -14.8 0zM1459.72 373.45 a7.4 7.4 0 1 0 14.8 0 a7.4 7.4 0 1 0 -14.8 0zM1395.63 410.45 a7.4 7.4 0 1 0 14.8 0 a7.4 7.4 0 1 0 -14.8 0zM1395.63 484.45 a7.4 7.4 0 1 0 14.8 0 a7.4 7.4 0 1 0 -14.8 0zM1523.81 188.45 a7.4 7.4 0 1 0 14.8 0 a7.4 7.4 0 1 0 -14.8 0zM1523.81 262.45 a7.4 7.4 0 1 0 14.8 0 a7.4 7.4 0 1 0 -14.8 0zM1523.81 484.45 a7.4 7.4 0 1 0 14.8 0 a7.4 7.4 0 1 0 -14.8 0zM1587.89 521.45 a7.4 7.4 0 1 0 14.8 0 a7.4 7.4 0 1 0 -14.8 0zM1587.89 595.45 a7.4 7.4 0 1 0 14.8 0 a7.4 7.4 0 1 0 -14.8 0zM1523.81 632.45 a7.4 7.4 0 1 0 14.8 0 a7.4 7.4 0 1 0 -14.8 0zM1459.72 595.45 a7.4 7.4 0 1 0 14.8 0 a7.4 7.4 0 1 0 -14.8 0zM1459.72 521.45 a7.4 7.4 0 1 0 14.8 0 a7.4 7.4 0 1 0 -14.8 0z" fill="#03305d"></path><path d="M486.47 549.33L659.68 649.33L659.68 849.33L486.47 949.33L313.26 849.33L313.26 649.33zM1006.1 249.33L1179.31 349.33L1179.31 549.33L1006.1 649.33L832.89 549.33L832.89 349.33zM832.89 549.33L1006.1 649.33L1006.1 849.33L832.89 949.33L659.68 849.33L659.68 649.33zM1179.31 549.33L1352.52 649.33L1352.52 849.33L1179.31 949.33L1006.1 849.33L1006.1 649.33zM1525.73 -50.67L1698.94 49.33L1698.94 249.33L1525.73 349.33L1352.52 249.33L1352.52 49.33zM1698.94 249.33L1872.15 349.33L1872.15 549.33L1698.94 649.33L1525.73 549.33L1525.73 349.33z" stroke="rgba(6, 80, 156, 0.93)" stroke-width="2"></path></g><defs><mask id="SvgjsMask1079"><rect width="1440" height="560" fill="#ffffff"></rect></mask></defs></svg>